<svg xmlns="http://www.w3.org/2000/svg" width="26" height="32"><path fill="#ef4035" d="M18.955 2H6.97V-.002h11.985zm4.366 29.999H2.63l-.293-.293C.829 30.196-.005 28.17-.01 26.002c-.004-2.172.824-4.2 2.332-5.71l6.645-6.707V4h1.998v10.414l-7.23 7.293c-1.13 1.132-1.75 2.655-1.747 4.29a6.054 6.054 0 001.488 4.002h18.998c2.051-2.355 1.967-6.064-.257-8.292l-7.23-7.293V4h1.997v9.586l6.645 6.707c3.139 3.144 3.13 8.263-.016 11.414zM4.2 27.319a4.151 4.151 0 01-.215-1.325c-.002-1.1.411-2.12 1.164-2.874l6.995-7 1.412 1.414-6.995 7a2.03 2.03 0 00-.578 1.455c.001.244.037.477.11.69z"/></svg>