<svg xmlns="http://www.w3.org/2000/svg" width="32" height="32"><path fill="#ef4035" d="M4.008 6.756c-.8 0-1.554-.314-2.12-.885L.477 4.446 4.714.17l1.413 1.425c.567.57.879 1.33.879 2.14 0 .452-.099.89-.285 1.287l5.715 5.561-1.387 1.45-5.735-5.578c-.401.196-.846.3-1.306.3zm-.707-2.31c.19.19.44.295.707.295a1.008 1.008 0 00.706-1.72zm22.99 23.237l-5.73-6.05 1.413-1.426 5.73 6.05zm.706 4.324a4.942 4.942 0 01-3.522-1.47l-6.347-6.674 1.412-1.425 6.348 6.675a2.979 2.979 0 004.232-.008 3.051 3.051 0 00-.007-4.282l-6.335-6.663 1.413-1.424 6.336 6.662c1.95 1.97 1.952 5.17.006 7.133a4.963 4.963 0 01-3.536 1.476zM23.506 15.31a6.92 6.92 0 01-4.945-2.067 7.04 7.04 0 01-2.05-4.988c0-1.884.728-3.657 2.05-4.989l1.826-1.843L21.8-.003l3.532 3.563-2.12 2.138a2.014 2.014 0 00-.585 1.426c0 .538.208 1.044.586 1.424.377.382.878.591 1.412.591.534 0 1.035-.21 1.412-.59l2.12-2.138 3.532 3.563-1.413 1.425-1.826 1.843a6.914 6.914 0 01-4.944 2.067zM19.974 4.69a5.029 5.029 0 00-1.464 3.565c0 1.345.52 2.61 1.464 3.562a4.94 4.94 0 003.531 1.477 4.938 4.938 0 003.532-1.477l1.826-1.842-.706-.712-.706.712a3.947 3.947 0 01-2.825 1.181h-.002A3.95 3.95 0 0121.8 9.974a4.022 4.022 0 01-1.17-2.85c0-1.076.416-2.09 1.17-2.852l.707-.712-.706-.713zM6.038 27.89H4.04v-2.015h1.998zm11.088-9.82l-3.963-3.952 1.405-1.433 3.963 3.952zM5.008 31.953a4.94 4.94 0 01-3.532-1.476 5.028 5.028 0 01-1.463-3.563c0-1.347.52-2.612 1.463-3.563l.119-.103 10.336-7.575 1.174 1.631L2.837 24.83a3.015 3.015 0 00-.826 2.085c0 .807.311 1.567.878 2.137 1.115 1.127 3.049 1.146 4.185.052l7.46-10.357 1.618 1.186L8.54 30.477a4.938 4.938 0 01-3.532 1.476z"/></svg>