<svg xmlns="http://www.w3.org/2000/svg" width="32" height="32"><path fill="#ef4035" d="M10.997 31.998a10.928 10.928 0 01-7.778-3.22c-4.29-4.288-4.29-11.267 0-15.556l3.535-3.535L22.31 25.242l-3.535 3.537a10.932 10.932 0 01-7.78 3.22zM6.754 12.515l-2.121 2.121c-3.51 3.51-3.51 9.22 0 12.728a8.94 8.94 0 006.364 2.634 8.942 8.942 0 006.364-2.634l2.121-2.122zM6.047 25.95c-2.729-2.73-2.729-7.172 0-9.901l1.414 1.414a5.009 5.009 0 000 7.073zm11.78-7.123l-1.415-1.415c.378-.377.586-.88.586-1.415 0-.534-.208-1.036-.586-1.412-.756-.757-2.073-.757-2.828 0L12.17 13.17c1.511-1.511 4.147-1.511 5.658 0a3.97 3.97 0 011.17 2.827 3.978 3.978 0 01-1.17 2.83zm6.131-2.919c0-4.962-4.007-9-8.969-9v-2c6.065 0 10.968 4.935 10.97 11zm6.04.042C29.995 8.26 23.736 2 16.047 1.999v-2c8.791.002 15.947 7.158 15.951 15.952z"/></svg>