<svg xmlns="http://www.w3.org/2000/svg" width="20" height="32"><path fill="#ef4035" d="M14.91 21.454l-1.785-.902 2.532-4.898c3.12-3.12 3.12-8.195 0-11.314-3.12-3.119-8.195-3.119-11.314 0-3.12 3.12-3.12 8.195 0 11.314l.114.113 2.405 4.787-1.787.899-2.263-4.503C-.97 13.042-.932 6.786 2.928 2.926c3.9-3.899 10.245-3.9 14.143 0 3.86 3.86 3.898 10.117.115 14.025zm-8.79 3.504l-.24-1.986 8-.968.24 1.985zm0 3l-.24-1.985 8-.97.24 1.986zm3.856 4.038c-1.654 0-3-1.345-3-3h2a1.001 1.001 0 002 0h2c0 1.655-1.345 3-3 3zM6 9.996H4c0-3.308 2.691-6 6-6v2c-2.206 0-4 1.795-4 4z"/></svg>